<svg width="24" height="24" viewBox="0 0 24 24" fill="none" xmlns="http://www.w3.org/2000/svg">
<g id="clarity:clock-line" clip-path="url(#clip0_3394_892)">
<path id="Vector" d="M12.0026 1.33594C9.89294 1.33594 7.83065 1.96153 6.07653 3.13359C4.3224 4.30566 2.95523 5.97157 2.14789 7.92065C1.34056 9.86973 1.12932 12.0144 1.5409 14.0836C1.95247 16.1527 2.96838 18.0533 4.46014 19.5451C5.9519 21.0368 7.85252 22.0527 9.92165 22.4643C11.9908 22.8759 14.1355 22.6647 16.0846 21.8573C18.0336 21.05 19.6995 19.6828 20.8716 17.9287C22.0437 16.1746 22.6693 14.1123 22.6693 12.0026C22.6693 9.17363 21.5455 6.46052 19.5451 4.46013C17.5447 2.45974 14.8316 1.33594 12.0026 1.33594ZM12.0026 21.3359C10.1566 21.3359 8.35215 20.7885 6.81729 19.763C5.28243 18.7374 4.08615 17.2798 3.37973 15.5743C2.67332 13.8689 2.48848 11.9923 2.84861 10.1818C3.20874 8.37127 4.09766 6.70823 5.40295 5.40294C6.70824 4.09765 8.37128 3.20874 10.1818 2.84861C11.9923 2.48848 13.8689 2.67331 15.5743 3.37973C17.2798 4.08615 18.7374 5.28242 19.763 6.81728C20.7886 8.35214 21.3359 10.1566 21.3359 12.0026C21.3359 14.478 20.3526 16.8519 18.6023 18.6023C16.8519 20.3526 14.478 21.3359 12.0026 21.3359Z" fill="#0F172A"/>
<path id="Vector_2" d="M12.6146 12.2667V7.16667C12.6146 6.98986 12.5443 6.82029 12.4193 6.69526C12.2943 6.57024 12.1247 6.5 11.9479 6.5C11.7711 6.5 11.6015 6.57024 11.4765 6.69526C11.3515 6.82029 11.2812 6.98986 11.2812 7.16667V12.98L15.2146 15.6467C15.287 15.7012 15.3698 15.7403 15.4579 15.7617C15.546 15.7831 15.6376 15.7863 15.727 15.7711C15.8163 15.7559 15.9017 15.7227 15.9778 15.6734C16.0539 15.6241 16.1191 15.5598 16.1695 15.4845C16.2199 15.4091 16.2544 15.3242 16.2709 15.2351C16.2874 15.1459 16.2855 15.0544 16.2654 14.966C16.2452 14.8776 16.2073 14.7942 16.1539 14.7209C16.1004 14.6477 16.0326 14.5861 15.9546 14.54L12.6146 12.2667Z" fill="#0F172A"/>
<path id="Vector_3" d="M5.33705 11.9588C5.33095 10.7595 5.65045 9.58099 6.26147 8.54899C6.8725 7.51698 7.75214 6.67015 8.80661 6.09878C9.86108 5.52741 11.0508 5.25292 12.2491 5.30458C13.4473 5.35623 14.609 5.7321 15.6104 6.39211L16.1771 5.48544C15.2259 4.86238 14.1485 4.45771 13.0223 4.3005C11.8962 4.1433 10.7492 4.23747 9.66374 4.57624C8.5783 4.91501 7.58136 5.48998 6.74454 6.25984C5.90772 7.0297 5.25179 7.97534 4.82387 9.02882C4.39596 10.0823 4.20667 11.2175 4.26962 12.3528C4.33257 13.4882 4.64619 14.5955 5.18795 15.5952C5.7297 16.5949 6.48615 17.4623 7.40295 18.1349C8.31975 18.8075 9.37414 19.2687 10.4904 19.4854L10.6704 18.4654C9.16904 18.159 7.81909 17.3447 6.84772 16.1596C5.87635 14.9746 5.34287 13.4911 5.33705 11.9588Z" fill="#0F172A"/>
</g>
<defs>
<clipPath id="clip0_3394_892">
<rect width="24" height="24" fill="white"/>
</clipPath>
</defs>
</svg>
