<svg width="162" height="128" viewBox="0 0 162 128" fill="none" xmlns="http://www.w3.org/2000/svg">
<g id="SVG" clip-path="url(#clip0_3394_803)">
<path id="b56e9dab-6ccb-4d32-ad02-6b4bb5d9bbeb" d="M65.5697 118.507L65.8918 118.89C68.9503 116.314 71.367 113.253 73.1386 109.71C74.9162 106.155 75.8027 102.28 75.8027 98.0919C75.8027 94.237 75.16 90.6155 73.8708 87.2314C72.5851 83.8565 70.8137 80.9533 68.553 78.5292C66.4529 76.1079 63.9476 74.2482 61.0407 72.9536C58.2795 71.4949 55.276 70.767 52.0386 70.767C48.9935 70.767 46.4686 71.1668 44.4872 71.9924L44.4799 71.9955L44.4726 71.9988C42.7101 72.7999 41.1035 73.6831 39.6544 74.6492C38.2407 75.5916 36.8279 76.455 35.4159 77.2394L35.4047 77.2457L35.3938 77.2525C34.2318 77.9787 32.6713 78.3634 30.6736 78.3634C29.0405 78.3634 27.5131 77.2868 26.1274 74.8257C24.7483 72.2185 24.0519 69.2166 24.0519 65.8071C24.0519 60.0311 25.3782 54.4081 28.0373 48.9335C30.703 43.4454 34.3114 38.345 38.8667 33.6325C43.5812 28.761 49.0045 24.5159 55.1389 20.8979C60.1667 18.0071 65.4966 15.6179 71.1291 13.7305C73.8626 12.8145 75.8027 10.2968 75.8027 7.38572C75.8027 3.6497 72.6341 0.622471 68.8814 1.1527C61.1635 2.2432 53.7398 4.41426 46.6119 7.66522C37.5369 11.6459 29.5729 17.0612 22.7236 23.9105C16.0322 30.6019 10.618 38.4859 6.47981 47.558L6.47682 47.5647C2.4901 56.6544 0.5 66.6148 0.5 77.4391C0.5 84.2996 1.61702 90.7679 3.85425 96.8404L3.8558 96.8445C6.08991 102.749 9.12394 108.02 12.959 112.654L12.9646 112.661C16.8027 117.138 21.2829 120.739 26.4034 123.459L26.4144 123.465C31.5505 126.033 37.0873 127.316 43.0178 127.316C47.5035 127.316 51.6783 126.595 55.5376 125.148L55.5477 125.144C59.5516 123.542 63.0052 121.456 65.9019 118.881L65.5697 118.507Z" stroke="#0F172A" stroke-opacity="0.2"/>
<path id="b56e9dab-6ccb-4d32-ad02-6b4bb5d9bbeb_2" d="M151.57 118.507L151.892 118.89C154.95 116.314 157.367 113.253 159.139 109.71C160.916 106.155 161.803 102.28 161.803 98.0919C161.803 94.237 161.16 90.6155 159.871 87.2314C158.585 83.8565 156.814 80.9533 154.553 78.5292C152.453 76.1079 149.948 74.2482 147.041 72.9536C144.279 71.4949 141.276 70.767 138.039 70.767C134.994 70.767 132.469 71.1668 130.487 71.9924L130.48 71.9955L130.473 71.9988C128.71 72.7999 127.103 73.6831 125.654 74.6492C124.241 75.5916 122.828 76.455 121.416 77.2394L121.405 77.2457L121.394 77.2525C120.232 77.9787 118.671 78.3634 116.674 78.3634C115.04 78.3634 113.513 77.2868 112.127 74.8257C110.748 72.2185 110.052 69.2166 110.052 65.8071C110.052 60.0311 111.378 54.4081 114.037 48.9335C116.703 43.4454 120.311 38.345 124.867 33.6325C129.581 28.761 135.005 24.5159 141.139 20.8979C146.167 18.0071 151.497 15.6179 157.129 13.7305C159.863 12.8145 161.803 10.2968 161.803 7.38572C161.803 3.6497 158.634 0.622471 154.881 1.1527C147.164 2.2432 139.74 4.41426 132.612 7.66522C123.537 11.6459 115.573 17.0612 108.724 23.9105C102.032 30.6019 96.618 38.4859 92.4798 47.558L92.4768 47.5647C88.4901 56.6544 86.5 66.6148 86.5 77.4391C86.5 84.2996 87.617 90.7679 89.8542 96.8404L89.8558 96.8445C92.0899 102.749 95.1239 108.02 98.959 112.654L98.9646 112.661C102.803 117.138 107.283 120.739 112.403 123.459L112.414 123.465C117.55 126.033 123.087 127.316 129.018 127.316C133.503 127.316 137.678 126.595 141.538 125.148L141.548 125.144C145.552 123.542 149.005 121.456 151.902 118.881L151.57 118.507Z" stroke="#0F172A" stroke-opacity="0.2"/>
</g>
<defs>
<clipPath id="clip0_3394_803">
<rect width="162" height="128" fill="white"/>
</clipPath>
</defs>
</svg>
