<svg width="24" height="24" viewBox="0 0 24 24" fill="none" xmlns="http://www.w3.org/2000/svg">
<g id="pepicons-pencil:smartphone-notch">
<path id="Vector" fill-rule="evenodd" clip-rule="evenodd" d="M6.59687 0.601562C6.11949 0.601563 5.66165 0.791205 5.32408 1.12877C4.98652 1.46634 4.79688 1.92417 4.79688 2.40156V21.6016C4.79688 22.079 4.98652 22.5368 5.32408 22.8744C5.66165 23.2119 6.11949 23.4016 6.59687 23.4016H17.3969C17.8743 23.4016 18.3321 23.2119 18.6697 22.8744C19.0072 22.5368 19.1969 22.079 19.1969 21.6016V2.40156C19.1969 1.92417 19.0072 1.46634 18.6697 1.12877C18.3321 0.791205 17.8743 0.601563 17.3969 0.601562H6.59687ZM5.99687 2.40156C5.99687 2.24243 6.06009 2.08982 6.17261 1.9773C6.28513 1.86478 6.43774 1.80156 6.59687 1.80156H8.39687V3.00156C8.39687 3.16069 8.46009 3.3133 8.57261 3.42583C8.68513 3.53835 8.83774 3.60156 8.99687 3.60156H14.9969C15.156 3.60156 15.3086 3.53835 15.4211 3.42583C15.5337 3.3133 15.5969 3.16069 15.5969 3.00156V1.80156H17.3969C17.556 1.80156 17.7086 1.86478 17.8211 1.9773C17.9337 2.08982 17.9969 2.24243 17.9969 2.40156V21.6016C17.9969 21.7607 17.9337 21.9133 17.8211 22.0258C17.7086 22.1383 17.556 22.2016 17.3969 22.2016H6.59687C6.43774 22.2016 6.28513 22.1383 6.17261 22.0258C6.06009 21.9133 5.99687 21.7607 5.99687 21.6016V2.40156Z" fill="#111111"/>
</g>
</svg>
