<svg width="24" height="24" viewBox="0 0 24 24" fill="none" xmlns="http://www.w3.org/2000/svg">
<g id="secure_4083852">
<g id="Group">
<path id="Vector" d="M21.3694 3.8826L12.7847 0.158848C12.293 -0.0530273 11.7061 -0.0530273 11.2125 0.159316L2.62968 3.8826C2.11828 4.10432 1.80093 4.5815 1.80093 5.12713V13.2463C1.80093 17.3015 3.99703 19.9213 5.83921 21.4049C8.05218 23.1881 10.5844 23.9999 12 23.9999C13.4156 23.9999 15.9478 23.1881 18.1612 21.4054C20.0034 19.9218 22.1995 17.302 22.1995 13.2468V5.12713C22.1995 4.5815 21.8812 4.10432 21.3694 3.8826ZM20.6995 13.2463C20.6995 16.7085 18.8077 18.9585 17.2205 20.2368C15.1589 21.8976 12.9689 22.4999 12 22.4999C11.0311 22.4999 8.84109 21.8971 6.77953 20.2368C5.19234 18.9585 3.30047 16.7081 3.30047 13.2463V5.22604L11.8078 1.53604C11.917 1.48916 12.0816 1.48916 12.1889 1.53557L20.6991 5.22697V13.2463H20.6995Z" fill="black"/>
<path id="Vector_2" d="M8.85233 11.0826C8.62311 10.7376 8.15718 10.6439 7.81265 10.8731C7.46765 11.1023 7.3739 11.5678 7.60311 11.9128L9.26436 14.4117C9.42233 14.6484 9.67077 14.8106 9.9464 14.8561C9.99983 14.865 10.0533 14.8692 10.1067 14.8692C10.3256 14.8692 10.5417 14.797 10.7151 14.6634L16.2253 10.477C16.5553 10.2262 16.6195 9.75608 16.3687 9.42608C16.118 9.09608 15.6478 9.03186 15.3178 9.28264L10.2267 13.1508L8.85233 11.0826Z" fill="black"/>
</g>
</g>
</svg>
